<?xml version="1.0" encoding="utf-8"?>
<!-- Generator: Adobe Illustrator 16.0.3, SVG Export Plug-In . SVG Version: 6.00 Build 0)  -->
<!DOCTYPE svg PUBLIC "-//W3C//DTD SVG 1.1//EN" "http://www.w3.org/Graphics/SVG/1.1/DTD/svg11.dtd">
<svg version="1.1" id="Ebene_1" xmlns="http://www.w3.org/2000/svg" xmlns:xlink="http://www.w3.org/1999/xlink" x="0px" y="0px"
	 width="243.375px" height="77px" viewBox="0 0 243.375 77" enable-background="new 0 0 243.375 77" xml:space="preserve">
<g>
	<polygon fill="#009EE0" stroke="#009EE0" stroke-width="0.25" stroke-linecap="square" stroke-miterlimit="10" points="
		86.25,62.75 86.75,62.25 86.75,62.25 87.5,63.25 88.25,63.5 88.25,63.5 89,63.5 89,63.5 89.5,63 89.5,63 89.5,62.25 89.5,62.25
		89.25,61.5 89.25,61.5 88,60.5 88,60.5 87,59.5 87,59.5 86.75,59 86.75,58.25 86.75,58.25 86.75,57.5 86.75,57.5 87.5,56.75
		87.5,56.75 88.25,56.75 88.25,56.75 89.25,57 89.25,57 90.25,57.75 89.75,58.25 89.75,58.25 89,57.5 89,57.5 88.25,57.5
		88.25,57.5 88,57.5 87.75,57.75 87.75,57.75 87.5,58 87.25,58.25 87.25,58.25 87.5,58.75 87.5,58.75 87.75,59.25 87.75,59.25
		88.75,60 88.75,60 90,61.25 90,61.25 90.25,61.75 90.25,62.25 90.25,62.25 90.25,63 89.75,63.75 89.75,63.75 89,64 88.25,64.25
		88.25,64.25 87.75,64.25 87.25,64 87.25,64 86.75,63.5 86.25,62.75 86.25,62.75 	"/>
	<path fill="#009EE0" stroke="#009EE0" stroke-width="0.25" stroke-linecap="square" stroke-miterlimit="10" d="M96.75,56.75
		L96.75,56.75l1.5,0.25L99,57.25l0.5,0.5l0,0l0.75,1.25l0.25,1.5l0,0l-0.25,1.5l-0.75,1.25l0,0L98.25,64l-1.5,0.25l0,0L95.25,64
		l-1-0.75l0,0l-1-1.25L93,60.5l0,0l0.25-1l0.25-1l0,0l0.75-0.75l0.75-0.5l0,0l0.75-0.5H96.75L96.75,56.75L96.75,56.75z M96.75,57.25
		L96.75,57.25L96,57.5l-0.75,0.25l0,0l-0.5,0.5L94.25,59l0,0L94,59.75l-0.25,0.75l0,0L94,61.75l0.75,1l0,0l1,0.5l1,0.25l0,0h0.75
		l0.75-0.25l0,0l0.75-0.5L99.5,62l0,0l0.25-0.75V60.5l0,0v-0.75L99.5,59l0,0L99,58.25l-0.75-0.5l0,0L97.5,57.5L96.75,57.25
		L96.75,57.25L96.75,57.25z"/>
	<polygon fill="#009EE0" stroke="#009EE0" stroke-width="0.25" stroke-linecap="square" stroke-miterlimit="10" points="
		103.5,56.75 107,56.75 107,57.5 104.25,57.5 104.25,59.75 107,59.75 107,60.5 104.25,60.5 104.25,64 103.5,64 103.5,56.75 	"/>
	<polygon fill="#009EE0" stroke="#009EE0" stroke-width="0.25" stroke-linecap="square" stroke-miterlimit="10" points="109,57.5
		109,56.75 113,56.75 113,57.5 111.5,57.5 111.5,64 110.75,64 110.75,57.5 109,57.5 	"/>
	<polygon fill="#009EE0" stroke="#009EE0" stroke-width="0.25" stroke-linecap="square" stroke-miterlimit="10" points="
		115.25,56.75 116,56.75 117.25,62 119.5,56.75 119.5,56.75 121.5,62 123,56.75 123.75,56.75 121.75,64 121.5,64 119.5,58.5
		117.25,64 117.25,64 115.25,56.75 	"/>
	<path fill="#009EE0" stroke="#009EE0" stroke-width="0.25" stroke-linecap="square" stroke-miterlimit="10" d="M128.75,56.75
		L132,64h-0.75l-1-2.25h-3L126,64h-0.75l3.25-7.25H128.75L128.75,56.75z M128.75,58.25L127.5,61h2.5L128.75,58.25L128.75,58.25z"/>
	<path fill="#009EE0" stroke="#009EE0" stroke-width="0.25" stroke-linecap="square" stroke-miterlimit="10" d="M134.75,56.75h1.5
		l0,0l1.5,0.25l0,0l0.5,0.25l0.5,0.25l0,0L139,58l0.25,0.75l0,0v0.5l-0.25,0.5l0,0l-0.5,0.5l-0.25,0.25l0,0l-1.5,0.25l2.5,3.25
		h-0.75l-2.75-3.25h-0.25V64h-0.75V56.75L134.75,56.75z M135.5,57.5V60h1.25l0,0l1-0.25l0,0l0.5-0.25l0,0l0.25-0.75l0,0L138.25,58
		l0,0l-0.5-0.25l0,0l-1-0.25H135.5L135.5,57.5z"/>
	<polygon fill="#009EE0" stroke="#009EE0" stroke-width="0.25" stroke-linecap="square" stroke-miterlimit="10" points="
		142.25,56.75 146.25,56.75 146.25,57.5 143,57.5 143,59.75 146.25,59.75 146.25,60.5 143,60.5 143,63.25 146.25,63.25 146.25,64
		142.25,64 142.25,56.75 	"/>
	<polygon fill="#009EE0" stroke="#009EE0" stroke-width="0.25" stroke-linecap="square" stroke-miterlimit="10" points="153,64
		154,56.75 154,56.75 157,62.75 160,56.75 160,56.75 161,64 160.25,64 159.75,59 157,64 157,64 154.5,58.75 153.75,64 153,64 	"/>
	<path fill="#009EE0" stroke="#009EE0" stroke-width="0.25" stroke-linecap="square" stroke-miterlimit="10" d="M166.75,56.75
		l3.5,7.25h-0.75l-1.25-2.25h-3L164,64h-0.75L166.75,56.75L166.75,56.75L166.75,56.75z M166.75,58.25L165.5,61h2.5L166.75,58.25
		L166.75,58.25z"/>
	<path fill="#009EE0" stroke="#009EE0" stroke-width="0.25" stroke-linecap="square" stroke-miterlimit="10" d="M172.75,64v-7.25
		h1.5l0,0l1.5,0.25h0.75l0,0l1,0.5l0.75,0.75l0,0l0.5,1v1.25l0,0v1l-0.5,1l0,0l-0.5,0.75l-0.5,0.5l0,0l-1,0.25H175H172.75L172.75,64
		z M173.5,63.5h0.75l0,0l2-0.25l0,0l0.75-0.5l0.75-0.5l0,0L178,61.5v-1l0,0v-1l-0.5-0.75l0,0l-0.5-0.5l-0.75-0.5l0,0L174,57.5h-0.5
		V63.5L173.5,63.5z"/>
	<polygon fill="#009EE0" stroke="#009EE0" stroke-width="0.25" stroke-linecap="square" stroke-miterlimit="10" points="
		181.75,56.75 185.75,56.75 185.75,57.5 182.5,57.5 182.5,59.75 185.75,59.75 185.75,60.5 182.5,60.5 182.5,63.25 185.75,63.25
		185.75,64 181.75,64 181.75,56.75 	"/>
	<polygon fill="#009EE0" stroke="#009EE0" stroke-width="0.25" stroke-linecap="square" stroke-miterlimit="10" points="
		192.75,56.75 196.25,56.75 196.25,57.5 193.5,57.5 193.5,59.75 196.25,59.75 196.25,60.5 193.5,60.5 193.5,64 192.75,64
		192.75,56.75 	"/>
	<path fill="#009EE0" stroke="#009EE0" stroke-width="0.25" stroke-linecap="square" stroke-miterlimit="10" d="M202.5,56.75
		L202.5,56.75L204,57l0.5,0.25l0.75,0.5l0,0L206,59l0.25,1.5l0,0L206,62l-0.75,1.25l0,0L204,64l-1.5,0.25l0,0L201,64l-1.25-0.75l0,0
		L199,62l-0.25-1.5l0,0l0.25-1l0.25-1l0,0l0.5-0.75l0.75-0.5l0,0l1-0.5H202.5L202.5,56.75L202.5,56.75z M202.5,57.25L202.5,57.25
		l-0.75,0.25L201,57.75l0,0l-0.75,0.5L200,59l0,0l-0.5,0.75v0.75l0,0l0.25,1.25l0.75,1l0,0l0.75,0.5l1.25,0.25l0,0h0.75l0.75-0.25
		l0,0l0.75-0.5l0.5-0.75l0,0l0.25-0.75V60.5l0,0v-0.75L205.25,59l0,0l-0.5-0.75l-0.75-0.5l0,0l-0.75-0.25L202.5,57.25L202.5,57.25
		L202.5,57.25z"/>
	<path fill="#009EE0" stroke="#009EE0" stroke-width="0.25" stroke-linecap="square" stroke-miterlimit="10" d="M209.25,56.75h1.5
		l0,0l1.5,0.25l0,0l0.5,0.25l0.5,0.25l0,0l0.25,0.5l0.25,0.75l0,0v0.5l-0.25,0.5l0,0l-0.5,0.5l-0.25,0.25l0,0l-1.5,0.25l2.5,3.25
		H213l-2.75-3.25H210V64h-0.75V56.75L209.25,56.75z M210,57.5V60h1.25l0,0l1-0.25l0,0l0.5-0.25l0,0l0.25-0.75l0,0L212.75,58l0,0
		l-0.5-0.25l0,0l-1-0.25H210L210,57.5z"/>
	<polygon fill="#009EE0" stroke="#009EE0" stroke-width="0.25" stroke-linecap="square" stroke-miterlimit="10" points="
		220.5,56.75 221.25,56.75 223,59.75 224.75,56.75 225.75,56.75 223.5,60.5 223.5,64 222.75,64 222.75,60.5 220.5,56.75 	"/>
	<path fill="#009EE0" stroke="#009EE0" stroke-width="0.25" stroke-linecap="square" stroke-miterlimit="10" d="M231.75,56.75
		L231.75,56.75l1.5,0.25l0.75,0.25l0.5,0.5l0,0l0.75,1.25l0.25,1.5l0,0l-0.25,1.5l-0.75,1.25l0,0L233.25,64l-1.5,0.25l0,0l-1.5-0.25
		l-1-0.75l0,0l-1-1.25L228,60.5l0,0l0.25-1l0.25-1l0,0l0.75-0.75l0.75-0.5l0,0l0.75-0.5H231.75L231.75,56.75L231.75,56.75z
		 M231.75,57.25L231.75,57.25L231,57.5l-0.75,0.25l0,0l-0.5,0.5l-0.5,0.75l0,0L229,59.75l-0.25,0.75l0,0l0.25,1.25l0.75,1l0,0l1,0.5
		l1,0.25l0,0h0.75l0.75-0.25l0,0l0.75-0.5l0.5-0.75l0,0l0.25-0.75V60.5l0,0v-0.75L234.5,59l0,0l-0.5-0.75l-0.75-0.5l0,0l-0.75-0.25
		L231.75,57.25L231.75,57.25L231.75,57.25z"/>
	<polygon fill="#009EE0" stroke="#009EE0" stroke-width="0.25" stroke-linecap="square" stroke-miterlimit="10" points="
		238.5,56.75 239.25,56.75 239.25,61.25 239.25,61.25 239.25,62.25 239.25,62.25 239.5,63 239.5,63 240,63.5 240,63.5 241,63.5
		241,63.5 241.5,63.5 241.5,63.5 242.25,63 242.25,63 242.5,62.25 242.5,62.25 242.5,61.25 242.5,56.75 243.25,56.75 243.25,61.25
		243.25,61.25 243,62.75 243,62.75 242.75,63.25 242.25,63.75 242.25,63.75 241.75,64.25 241,64.25 241,64.25 240.25,64.25
		239.5,63.75 239.5,63.75 239,63.25 238.75,62.75 238.75,62.75 238.5,61.25 238.5,56.75 	"/>
	<path fill="#009EE0" d="M89,40L89,40l0.25,1l0.5,1.25l1,1.25l1.5,1.75l0,0l1.25,1L95,47l1.5,0.5l1.25,0.5l2.75,0.5h1.75l0,0h2
		l2.5-0.5l1.5-0.5l1.5-0.5l1.5-1l1.25-1l0,0l1-1l1.25-1.5l4.75,0.25l0,0l-1,1.5L117.25,46l-1.5,1.25l-1.75,1.5l0,0l-1.75,0.75
		l-2.5,1l-3.25,0.75l-2,0.25l-2.25,0.25l0,0l-3-0.25l-3-0.5l-2.75-1L91,48.75l0,0l-2-1.25l-1.5-1.25l-1.25-1.5l-0.75-1.5L85,42
		l-0.25-1.25L84.5,39l0,0v-1.5l0.5-2l0.5-1l0.75-1l1-1.25L88.5,31l0,0l1.75-1.5l2-1l2-0.75l2-0.75l3.5-0.5l2.5-0.25l0,0L105,26.5
		l2.75,0.5l2.5,0.75l2.25,1l2.25,1.25l1.75,1.5L118,33l1.25,2l0,0l0.5,1.25L120,37.5l0.25,2.5H89L89,40z M115.25,36.75L115.25,36.75
		l-0.75-1.5l-0.5-1l-1.25-1l0,0l-2-1.75l-2.75-1l-2.75-0.75l-3-0.25l0,0h-1.75L99,29.75l-1.75,0.5l-1.5,0.5l-1.5,0.75L93,32.25
		l-1.25,1l-1,1l0,0l-0.75,1l-0.75,1.5H115.25L115.25,36.75z"/>
	<polygon fill="#009EE0" points="137,47.5 137,47.5 140,41.25 140,41.25 144,34.75 144,34.75 148.5,27 153.25,27 139,51.25
		134.5,51.25 121,27 125.75,27 137,47.5 	"/>
	<path fill="#009EE0" d="M158.75,40L158.75,40l0.25,1l0.5,1.25l1,1.25l1.5,1.75l0,0l1.5,1L165,47l1.25,0.5l1.5,0.5l2.5,0.5h2l0,0h2
		l2.5-0.5l1.5-0.5l1.5-0.5l1.25-1l1.5-1l0,0l1-1l1-1.5l5,0.25l0,0l-1.25,1.5L187,46l-1.25,1.25l-2,1.5l0,0l-1.5,0.75l-2.75,1
		l-3.25,0.75l-2,0.25l-2,0.25l0,0l-3-0.25l-3-0.5l-3-1l-2.5-1.25l0,0l-2-1.25l-1.5-1.25l-1-1.5l-0.75-1.5L154.75,42l-0.25-1.25
		L154.25,39l0,0l0.25-1.5l0.5-2l0.5-1l0.75-1l1-1.25l1-1.25l0,0l2-1.5l2-1l1.75-0.75l2-0.75l3.5-0.5l2.75-0.25l0,0L175,26.5l2.5,0.5
		l2.5,0.75l2.5,1l2,1.25l2,1.5L188,33l1,2l0,0l0.5,1.25l0.25,1.25L190,40H158.75L158.75,40z M185,36.75L185,36.75l-0.5-1.5l-0.75-1
		l-1-1l0,0l-2.25-1.75l-2.5-1l-3-0.75l-2.75-0.25l0,0h-1.75l-1.75,0.25l-1.75,0.5l-1.5,0.5L164,31.5l-1.25,0.75l-1,1l-1,1l0,0
		l-0.75,1l-0.75,1.5H185L185,36.75z"/>
	<polygon fill="#009EE0" points="199.5,18 199.5,51.25 195,51.25 195,18 199.5,18 	"/>
	<path fill="#009EE0" d="M210.75,27v24.25h-4.5V27H210.75L210.75,27z M210.5,18v6h-4.25v-6H210.5L210.5,18z"/>
	<polygon fill="#009EE0" points="214.75,26.75 219.75,26.75 228.5,36 237.25,27 242.75,27 242.75,27 237,32.75 237,32.75 231,39
		242.75,51.25 237.5,51.25 228.5,41.5 219.5,51.25 213.75,51.25 225.75,38.75 214.75,26.75 	"/>
	<polygon fill="#009EE0" points="59.75,21.25 57.25,19 57.25,19 51.75,21.25 46.75,24.25 42.25,27.5 38,31 38,31 34.75,34.25
		32,37.75 29.5,41.25 27.5,45 26,48.75 24.75,52.75 24.25,56.5 24,60.5 24,60.5 24,62.5 38.5,77 46.25,69.25 46.25,69.25
		45.25,63.25 45,57 45,57 45.25,51.75 46,46.75 47.25,41.75 48.75,37 50.75,32.75 53.25,28.5 56.25,24.75 59.75,21.25 59.75,21.25
		"/>
	<polygon fill="#009EE0" points="31,23.75 31,23.75 35.25,20.25 39.75,16.75 44.5,14 49.75,11.25 38.5,0 0,38.5 14.5,53 14.5,53
		15.5,49 16.75,45 18.5,41 20.25,37.25 22.5,33.75 25.25,30.25 28,27 31,23.75 31,23.75 	"/>
	<polygon fill="#009EE0" points="47.5,57 47.5,57 47.75,62 48.5,67.25 77,38.5 61.5,23 61.5,23 58.25,26.25 55.5,29.75 53,33.75
		51,38 49.5,42.5 48.5,47.25 47.75,52 47.5,57 47.5,57 	"/>
</g>
</svg>
